<svg xmlns="http://www.w3.org/2000/svg" width="26" height="26" viewBox="0 0 26 26">
  <g id="campain" transform="translate(15210 5210)">
    <rect id="Rectangle_3666" data-name="Rectangle 3666" width="26" height="26" transform="translate(-15210 -5210)" fill="rgba(207,207,207,0)"/>
    <path id="Path_10736" data-name="Path 10736" d="M19,22.815a3.8,3.8,0,0,1-.947-7.48l.15-.038V12.8H5.8v2.5l.15.038a3.8,3.8,0,0,1,0,7.359A3.854,3.854,0,0,1,5,22.815a3.8,3.8,0,0,1-.947-7.48L4.2,15.3V12a.8.8,0,0,1,.8-.8h6.2V8.7l-.15-.039a3.8,3.8,0,1,1,1.9,0L12.8,8.7v2.5H19a.8.8,0,0,1,.8.8v3.3l.15.038a3.8,3.8,0,0,1,0,7.359,3.849,3.849,0,0,1-.953.121ZM19,16.8A2.2,2.2,0,1,0,21.2,19,2.2,2.2,0,0,0,19,16.8Zm-14,0A2.2,2.2,0,1,0,7.2,19,2.2,2.2,0,0,0,5,16.8Zm7-14A2.2,2.2,0,1,0,14.2,5,2.2,2.2,0,0,0,12,2.8Z" transform="translate(-15209 -5209.184)" fill="#252525"/>
  </g>
</svg>
