<svg xmlns="http://www.w3.org/2000/svg" width="26" height="26" viewBox="0 0 26 26">
  <g id="campain" transform="translate(15210 5210)">
    <rect id="Rectangle_3666" data-name="Rectangle 3666" width="26" height="26" transform="translate(-15210 -5210)" fill="rgba(207,207,207,0)"/>
    <path id="Path_10735" data-name="Path 10735" d="M19,24.8A5.8,5.8,0,1,1,24.8,19,5.807,5.807,0,0,1,19,24.8Zm-3.6-7.9A4.173,4.173,0,0,0,21.1,22.6l.226-.13-5.8-5.8ZM19,14.834a4.2,4.2,0,0,0-2.1.563l-.226.13,5.8,5.8L22.6,21.1A4.154,4.154,0,0,0,19,14.834ZM4,24.8A2.8,2.8,0,0,1,1.2,22,6.807,6.807,0,0,1,8,15.2h3a.8.8,0,1,1,0,1.6H8A5.206,5.206,0,0,0,2.8,22,1.2,1.2,0,0,0,4,23.2h8a.8.8,0,1,1,0,1.6Zm9-12A5.8,5.8,0,1,1,18.8,7,5.807,5.807,0,0,1,13,12.8Zm0-10A4.2,4.2,0,1,0,17.2,7,4.2,4.2,0,0,0,13,2.8Z" transform="translate(-15210.25 -5210.2)" fill="#252525"/>
  </g>
</svg>
