<svg xmlns="http://www.w3.org/2000/svg" width="26" height="26" viewBox="0 0 26 26">
  <g id="campain" transform="translate(15210 5210)">
    <rect id="Rectangle_3666" data-name="Rectangle 3666" width="26" height="26" transform="translate(-15210 -5210)" fill="rgba(207,207,207,0)"/>
    <g id="Group_15611" data-name="Group 15611" transform="translate(-15210 -5208)">
      <path id="Path_8319" data-name="Path 8319" d="M6.722,26.432A4.534,4.534,0,0,1,2.2,21.91V15.316a2.645,2.645,0,0,1,2.638-2.638h5.841V6.838A2.645,2.645,0,0,1,13.316,4.2H25.562A2.645,2.645,0,0,1,28.2,6.838V23.794a2.645,2.645,0,0,1-2.638,2.638H6.722ZM13.316,5.707a1.134,1.134,0,0,0-1.13,1.13V21.91a4.5,4.5,0,0,1-.927,2.711l-.233.3H25.562a1.134,1.134,0,0,0,1.13-1.13V6.838a1.134,1.134,0,0,0-1.13-1.13ZM4.838,14.186a1.134,1.134,0,0,0-1.13,1.13V21.91a3.022,3.022,0,0,0,3.014,3.014h.942a3.022,3.022,0,0,0,3.014-3.014V14.186Z" transform="translate(-2.2 -4.2)" fill="#252525"/>
      <path id="Path_8320" data-name="Path 8320" d="M15.954,9.707a.754.754,0,0,1,0-1.507h3.768a.754.754,0,0,1,0,1.507Z" transform="translate(-2.954 -4.432)" fill="#252525"/>
      <path id="Path_8321" data-name="Path 8321" d="M15.954,13.707a.754.754,0,0,1,0-1.507H23.49a.754.754,0,0,1,0,1.507Z" transform="translate(-2.954 -4.664)" fill="#252525"/>
    </g>
  </g>
</svg>
