<svg xmlns="http://www.w3.org/2000/svg" width="90" height="90" viewBox="0 0 90 90">
  <g id="Group_15769" data-name="Group 15769" transform="translate(-143 -312)">
    <rect id="Rectangle_4209" data-name="Rectangle 4209" width="90" height="90" transform="translate(143 312)" fill="none"/>
    <path id="Subtraction_11" data-name="Subtraction 11" d="M5792.64,11456.623h-30l2.444-4.234h27.553a3.188,3.188,0,0,0,3.177-3.177v-47.644a3.168,3.168,0,0,0-.452-1.624l2.233-3.869a7.427,7.427,0,0,1,2.452,5.493v47.644A7.431,7.431,0,0,1,5792.64,11456.623Zm-35.77,0H5739.7a12.74,12.74,0,0,1-12.7-12.7v-18.526a7.434,7.434,0,0,1,7.411-7.413h16.411v-16.411a7.433,7.433,0,0,1,7.411-7.408h34.407c.1,0,.2,0,.291.006l-2.441,4.228h-32.257a3.187,3.187,0,0,0-3.177,3.175v42.351a12.63,12.63,0,0,1-2.6,7.618l-.653.852h7.517l-2.444,4.234Zm-22.459-34.407a3.188,3.188,0,0,0-3.177,3.177v18.526a8.494,8.494,0,0,0,8.47,8.47h2.648a8.493,8.493,0,0,0,8.47-8.47v-21.7Zm54.289,7.354h-10.438l2.446-4.236h7.992a2.144,2.144,0,1,1,0,4.236Zm-16.21,0h-8.6a2.145,2.145,0,1,1,0-4.236h11.048l-2.445,4.236Zm16.21-10h-4.666l2.446-4.236h2.22a2.144,2.144,0,1,1,0,4.236Zm-10.437,0h-14.375a2.145,2.145,0,1,1,0-4.236h16.821l-2.446,4.236Zm-4.148-10.588h-10.588a2.118,2.118,0,0,1,0-4.236h10.588a2.118,2.118,0,0,1,0,4.236Z" transform="translate(-5576 -11068.159)" fill="#b3bec5" stroke="rgba(0,0,0,0)" stroke-miterlimit="10" stroke-width="1"/>
    <rect id="Rectangle_11397" data-name="Rectangle 11397" width="5" height="89" transform="translate(216.335 318.109) rotate(30)" fill="#b3bec5"/>
  </g>
</svg>
