<svg xmlns="http://www.w3.org/2000/svg" width="44" height="44" viewBox="0 0 44 44">
  <g id="Group_15709" data-name="Group 15709" transform="translate(-19 -103)">
    <g id="yssdnk2n" transform="translate(19 103)" fill="#f5f8ff" stroke="#f5f8ff" stroke-width="1">
      <rect width="44" height="44" rx="4" stroke="none"/>
      <rect x="0.5" y="0.5" width="43" height="43" rx="3.5" fill="none"/>
    </g>
    <g id="campain" transform="translate(15238 5322)">
      <rect id="Rectangle_3666" data-name="Rectangle 3666" width="26" height="26" transform="translate(-15210 -5210)" fill="rgba(207,207,207,0)"/>
      <path id="campain-icon" d="M10.747,26.6a3.215,3.215,0,0,1-.991-.22,1.975,1.975,0,0,1-.771-.55,2.6,2.6,0,0,1-.771-1.761V17.462H7a4.022,4.022,0,0,1-1.651-.33A4.283,4.283,0,0,1,2.6,13.169V11.3A4.228,4.228,0,0,1,3.811,8.215,4,4,0,0,1,6.894,6.894h9.688L21.1,2.82a1.565,1.565,0,0,1,.661-.22.662.662,0,0,1,.44.11.959.959,0,0,1,.661.881v6.5h.661a2.031,2.031,0,0,1,1.321.55,1.823,1.823,0,0,1,.55,1.321,1.856,1.856,0,0,1-1.872,1.872h-.661v6.606a.872.872,0,0,1-.55.881.662.662,0,0,1-.44.11h0a1.565,1.565,0,0,1-.661-.22l-4.514-3.853H13.279v6.606A2.519,2.519,0,0,1,10.747,26.6ZM9.426,24.068a1.345,1.345,0,0,0,.44.991,2.213,2.213,0,0,0,.881.44,1.272,1.272,0,0,0,1.321-1.321V17.572H9.426ZM16.8,16.141a.4.4,0,0,1,.33.11c.11,0,.22.11.33.22l4.183,3.523V4.141L17.352,7.994v4.183a.71.71,0,0,1-.661.661h-.22a.731.731,0,0,1-.44-.55V8.325H6.783A2.637,2.637,0,0,0,4.692,9.1a3.074,3.074,0,0,0-.881,2.2v1.872a3.15,3.15,0,0,0,3.083,3.083Z" transform="translate(-15210.6 -5211.6)" fill="#5d95ff"/>
    </g>
  </g>
</svg>
