<svg xmlns="http://www.w3.org/2000/svg" width="26" height="26" viewBox="0 0 26 26">
  <g id="campain" transform="translate(15209.501 5210)">
    <rect id="Rectangle_3666" data-name="Rectangle 3666" width="26" height="26" transform="translate(-15209.501 -5210)" fill="rgba(207,207,207,0)"/>
    <g id="Group_16436" data-name="Group 16436" transform="translate(-16031.979 -5563)">
      <path id="Path_10733" data-name="Path 10733" d="M834.448,378l-.147-.025c-.13-.022-.265-.045-.4-.063a8.514,8.514,0,0,1-5.12-2.663,8.606,8.606,0,0,1,.787-12.467.792.792,0,0,0,.292-.645l0-.38c0-.857-.009-1.743,0-2.612a5.186,5.186,0,0,1,3.777-4.933c.216-.062.438-.106.673-.153l.294-.06h.963a.858.858,0,0,0,.175.042,5.2,5.2,0,0,1,4.584,5.01c.02.837.015,1.691.009,2.518q0,.272,0,.543a.85.85,0,0,0,.306.682,8.474,8.474,0,0,1,2.93,8.13,8.327,8.327,0,0,1-2.218,4.4,8.442,8.442,0,0,1-4.285,2.444c-.308.068-.618.116-.946.166-.142.022-.285.043-.427.067Zm.638-15.768a7.144,7.144,0,0,0,0,14.287h.03a7.164,7.164,0,0,0,7.13-7.121,7.161,7.161,0,0,0-7.12-7.166Zm.066-6.745a3.758,3.758,0,0,0-3.674,2.713,6.211,6.211,0,0,0-.154,1.874c.007.307.013.624-.006.932l-.037.6.562-.216a9.112,9.112,0,0,1,3.269-.633,8.788,8.788,0,0,1,3.186.616l.527.2v-.566c0-.229.006-.462.012-.688a12.372,12.372,0,0,0-.026-1.553,3.678,3.678,0,0,0-3.335-3.272C835.368,355.491,835.259,355.487,835.152,355.487Z" transform="translate(0)" fill="#252525"/>
      <path id="Path_10734" data-name="Path 10734" d="M933,552.905a.73.73,0,0,1-.73-.682c-.008-.193-.007-.385-.006-.588,0-.089,0-.178,0-.268v-.361c0-.114,0-.227,0-.341,0-.274,0-.558,0-.834a.736.736,0,0,0-.339-.662,1.849,1.849,0,0,1-.735-1.973,1.883,1.883,0,0,1,1.557-1.4,1.805,1.805,0,0,1,.247-.017,1.877,1.877,0,0,1,1.728,1.17,1.851,1.851,0,0,1-.639,2.206.781.781,0,0,0-.356.693c.008.843.014,1.6,0,2.382a.713.713,0,0,1-.727.672Z" transform="translate(-97.902 -179.409)" fill="#252525"/>
    </g>
  </g>
</svg>
