<svg xmlns="http://www.w3.org/2000/svg" width="16.499" height="16.5" viewBox="0 0 16.499 16.5">
  <g id="chat_1_" data-name="chat(1)" transform="translate(0.25 0.25)">
    <path id="Path_10684" data-name="Path 10684" d="M.5,7.678A7.855,7.855,0,0,1,8.5,0a7.855,7.855,0,0,1,8,7.675v.013a7.551,7.551,0,0,1-2.51,5.583v1.934A.784.784,0,0,1,13.2,16a.78.78,0,0,1-.414-.119l-1.554-.971a8.209,8.209,0,0,1-2.721.463H8.349A7.855,7.855,0,0,1,.5,7.7V7.678Zm3.067,4.836a6.873,6.873,0,0,0,4.922,1.922H8.5a7.277,7.277,0,0,0,2.529-.447.683.683,0,0,1,.6.062l1.421.887V13.159a.686.686,0,0,1,.237-.518,6.612,6.612,0,0,0,2.273-4.949A6.917,6.917,0,0,0,8.508.942H8.489A6.917,6.917,0,0,0,1.438,7.689a6.873,6.873,0,0,0,2.129,4.825Zm0,0" transform="translate(-0.499 -0.002)" fill="#3d4046" stroke="#3d4046" stroke-width="0.5"/>
  </g>
</svg>
