<svg xmlns="http://www.w3.org/2000/svg" width="17.005" height="14.617" viewBox="0 0 17.005 14.617">
  <path id="Path_10685" data-name="Path 10685" d="M18.376,3.471a2.056,2.056,0,0,0-1.093-.293L3.681,4.219A1.614,1.614,0,0,0,2.125,5.925a1.483,1.483,0,0,0,.65,1.126l4.606,3.577L8.175,16.4a1.668,1.668,0,0,0,1.83,1.369,1.487,1.487,0,0,0,1.126-.65l7.738-11.4a1.643,1.643,0,0,0-.493-2.256ZM10.2,16.507a.518.518,0,0,1-.757.09.306.306,0,0,1-.2-.347L8.46,10.7l9.44-5.45ZM7.823,9.8,3.355,6.255a.671.671,0,0,1-.09-.757.3.3,0,0,1,.346-.2l13.6-1.04Z" transform="translate(-2.122 -3.175)" fill="#3d4046"/>
</svg>
