<svg xmlns="http://www.w3.org/2000/svg" xmlns:xlink="http://www.w3.org/1999/xlink" width="15" height="15" viewBox="0 0 15 15">
  <defs>
    <linearGradient id="linear-gradient" x1="0.084" y1="0.916" x2="0.916" y2="0.084" gradientUnits="objectBoundingBox">
      <stop offset="0" stop-color="#ffd600"/>
      <stop offset="0.5" stop-color="#ff0100"/>
      <stop offset="1" stop-color="#d800b9"/>
    </linearGradient>
    <linearGradient id="linear-gradient-2" x1="0.146" y1="0.854" x2="0.854" y2="0.146" gradientUnits="objectBoundingBox">
      <stop offset="0" stop-color="#ff6400"/>
      <stop offset="0.5" stop-color="#ff0100"/>
      <stop offset="1" stop-color="#fd0056"/>
    </linearGradient>
    <linearGradient id="linear-gradient-3" x1="0.146" y1="0.854" x2="0.854" y2="0.146" gradientUnits="objectBoundingBox">
      <stop offset="0" stop-color="#f30072"/>
      <stop offset="1" stop-color="#e50097"/>
    </linearGradient>
  </defs>
  <g id="instagram" transform="translate(0 0)">
    <path id="Path_10613" data-name="Path 10613" d="M14.955,4.408a5.506,5.506,0,0,0-.349-1.821,3.676,3.676,0,0,0-.865-1.328A3.677,3.677,0,0,0,12.413.393,5.505,5.505,0,0,0,10.592.045C9.792.009,9.537,0,7.5,0S5.208.009,4.408.045A5.507,5.507,0,0,0,2.587.394a3.676,3.676,0,0,0-1.328.865A3.677,3.677,0,0,0,.393,2.587,5.506,5.506,0,0,0,.045,4.408C.008,5.208,0,5.463,0,7.5s.009,2.293.045,3.092a5.5,5.5,0,0,0,.349,1.821,3.675,3.675,0,0,0,.865,1.328,3.675,3.675,0,0,0,1.328.865,5.5,5.5,0,0,0,1.821.349c.8.037,1.055.045,3.092.045s2.292-.009,3.092-.045a5.5,5.5,0,0,0,1.821-.349,3.834,3.834,0,0,0,2.193-2.193,5.5,5.5,0,0,0,.349-1.821c.036-.8.045-1.055.045-3.092s-.009-2.292-.045-3.092ZM13.6,10.531a4.15,4.15,0,0,1-.258,1.393,2.484,2.484,0,0,1-1.423,1.423,4.15,4.15,0,0,1-1.393.258c-.791.036-1.028.044-3.031.044s-2.24-.008-3.031-.044a4.151,4.151,0,0,1-1.393-.258,2.324,2.324,0,0,1-.862-.561,2.323,2.323,0,0,1-.561-.862,4.15,4.15,0,0,1-.258-1.393C1.359,9.74,1.351,9.5,1.351,7.5s.008-2.24.044-3.031a4.153,4.153,0,0,1,.258-1.393,2.325,2.325,0,0,1,.561-.862,2.322,2.322,0,0,1,.862-.561,4.149,4.149,0,0,1,1.393-.258C5.26,1.359,5.5,1.351,7.5,1.351h0c2,0,2.24.008,3.031.044a4.15,4.15,0,0,1,1.393.258,2.325,2.325,0,0,1,.862.561,2.322,2.322,0,0,1,.561.862A4.146,4.146,0,0,1,13.6,4.469c.036.791.044,1.028.044,3.031s-.008,2.24-.044,3.031Zm0,0" transform="translate(0 0)" fill="url(#linear-gradient)"/>
    <path id="Path_10614" data-name="Path 10614" d="M128.39,124.539a3.851,3.851,0,1,0,3.851,3.851A3.851,3.851,0,0,0,128.39,124.539Zm0,6.351a2.5,2.5,0,1,1,2.5-2.5A2.5,2.5,0,0,1,128.39,130.89Zm0,0" transform="translate(-120.891 -120.89)" fill="url(#linear-gradient-2)"/>
    <path id="Path_10615" data-name="Path 10615" d="M363.73,89.525a.9.9,0,1,1-.9-.9A.9.9,0,0,1,363.73,89.525Zm0,0" transform="translate(-351.326 -86.029)" fill="url(#linear-gradient-3)"/>
  </g>
</svg>
