<svg xmlns="http://www.w3.org/2000/svg" width="18.484" height="16.5" viewBox="0 0 18.484 16.5">
  <path id="heart" d="M8.992,16a1.055,1.055,0,0,1-.7-.261C7.57,15.1,6.87,14.507,6.252,13.98l0,0A38.031,38.031,0,0,1,1.784,9.786,6.694,6.694,0,0,1,0,5.4,5.621,5.621,0,0,1,1.427,1.566,4.836,4.836,0,0,1,5.024,0,4.524,4.524,0,0,1,7.85.975,5.781,5.781,0,0,1,8.992,2.168,5.782,5.782,0,0,1,10.135.975,4.524,4.524,0,0,1,12.96,0a4.836,4.836,0,0,1,3.6,1.566A5.621,5.621,0,0,1,17.984,5.4,6.693,6.693,0,0,1,16.2,9.786a38.027,38.027,0,0,1-4.465,4.191c-.619.527-1.321,1.125-2.049,1.762a1.055,1.055,0,0,1-.7.261ZM5.024,1.054A3.794,3.794,0,0,0,2.2,2.28,4.572,4.572,0,0,0,1.053,5.4,5.632,5.632,0,0,0,2.595,9.114a37.425,37.425,0,0,0,4.337,4.061l0,0c.62.529,1.324,1.128,2.055,1.768.736-.641,1.441-1.241,2.062-1.771A37.435,37.435,0,0,0,15.39,9.114,5.633,5.633,0,0,0,16.931,5.4,4.572,4.572,0,0,0,15.783,2.28,3.794,3.794,0,0,0,12.96,1.054a3.494,3.494,0,0,0-2.181.755A5.112,5.112,0,0,0,9.563,3.215a.665.665,0,0,1-1.142,0A5.107,5.107,0,0,0,7.205,1.809a3.494,3.494,0,0,0-2.181-.755Zm0,0" transform="translate(0.25 0.25)" fill="#3d4046" stroke="#3d4046" stroke-width="0.5"/>
</svg>
