<svg xmlns="http://www.w3.org/2000/svg" width="17.984" height="16" viewBox="0 0 17.984 16">
  <path id="heart" d="M8.992,16a1.055,1.055,0,0,1-.7-.261C7.57,15.1,6.87,14.507,6.252,13.98l0,0A38.031,38.031,0,0,1,1.784,9.786,6.694,6.694,0,0,1,0,5.4,5.621,5.621,0,0,1,1.427,1.566,4.836,4.836,0,0,1,5.024,0,4.524,4.524,0,0,1,7.85.975,5.781,5.781,0,0,1,8.992,2.168,5.782,5.782,0,0,1,10.135.975,4.524,4.524,0,0,1,12.96,0a4.836,4.836,0,0,1,3.6,1.566A5.621,5.621,0,0,1,17.984,5.4,6.693,6.693,0,0,1,16.2,9.786a38.027,38.027,0,0,1-4.465,4.191c-.619.527-1.321,1.125-2.049,1.762a1.055,1.055,0,0,1-.7.261Z" transform="translate(0 0)" fill="#f44"/>
</svg>
