<svg xmlns="http://www.w3.org/2000/svg" xmlns:xlink="http://www.w3.org/1999/xlink" width="375" height="812" viewBox="0 0 375 812">
  <defs>
    <clipPath id="clip-path">
      <circle id="Ellipse_27" data-name="Ellipse 27" cx="22.328" cy="22.328" r="22.328" transform="matrix(0.23, -0.973, 0.973, 0.23, 0, 43.462)" fill="none"/>
    </clipPath>
    <clipPath id="clip-_05_KOLI_Home_Page">
      <rect width="375" height="812"/>
    </clipPath>
  </defs>
  <g id="_05_KOLI_Home_Page" data-name="05 KOLI Home Page" clip-path="url(#clip-_05_KOLI_Home_Page)">
    <rect width="375" height="812" fill="#f8f8f8"/>
    <g id="Group_16551" data-name="Group 16551">
      <circle id="Ellipse_678" data-name="Ellipse 678" cx="175" cy="175" r="175" transform="translate(-95 -75)" fill="#f1f1f1"/>
      <g id="Group_15852" data-name="Group 15852" transform="translate(838.539 -312.796)" opacity="0.76">
        <g id="Group_5416" data-name="Group 5416" transform="translate(-497.26 417.796)" clip-path="url(#clip-path)">
          <g id="Group_5415" data-name="Group 5415" transform="translate(1.48 0.353)">
            <rect id="Rectangle_264" data-name="Rectangle 264" width="50.762" height="1.79" transform="translate(0 8.211)" fill="#fad141"/>
            <g id="Group_5414" data-name="Group 5414">
              <rect id="Rectangle_265" data-name="Rectangle 265" width="50.762" height="1.79" fill="#fad141"/>
              <rect id="Rectangle_266" data-name="Rectangle 266" width="50.762" height="1.79" transform="translate(0 4.106)" fill="#fad141"/>
              <rect id="Rectangle_267" data-name="Rectangle 267" width="50.762" height="1.79" transform="translate(0 12.317)" fill="#fad141"/>
              <rect id="Rectangle_268" data-name="Rectangle 268" width="50.762" height="1.79" transform="translate(0 16.423)" fill="#fad141"/>
              <rect id="Rectangle_269" data-name="Rectangle 269" width="50.762" height="1.79" transform="translate(0 20.529)" fill="#fad141"/>
              <rect id="Rectangle_270" data-name="Rectangle 270" width="50.762" height="1.79" transform="translate(0 24.635)" fill="#fad141"/>
              <rect id="Rectangle_271" data-name="Rectangle 271" width="50.762" height="1.79" transform="translate(0 28.74)" fill="#fad141"/>
              <rect id="Rectangle_272" data-name="Rectangle 272" width="50.762" height="1.79" transform="translate(0 32.846)" fill="#fad141"/>
              <rect id="Rectangle_273" data-name="Rectangle 273" width="50.762" height="1.79" transform="translate(0 36.952)" fill="#fad141"/>
              <rect id="Rectangle_274" data-name="Rectangle 274" width="50.762" height="1.79" transform="translate(0 41.058)" fill="#fad141"/>
              <rect id="Rectangle_275" data-name="Rectangle 275" width="50.762" height="1.79" transform="translate(0 45.163)" fill="#fad141"/>
              <rect id="Rectangle_276" data-name="Rectangle 276" width="50.762" height="1.79" transform="translate(0 49.269)" fill="#fad141"/>
            </g>
          </g>
        </g>
      </g>
      <path id="Path_10629" data-name="Path 10629" d="M535.179,496.563a11.164,11.164,0,1,1-.924-15.762A11.164,11.164,0,0,1,535.179,496.563Z" transform="translate(-279.817 -438.809)" opacity="0.04"/>
      <path id="Path_10629-2" data-name="Path 10629" d="M525.425,487.272a5.582,5.582,0,1,1-.462-7.881A5.582,5.582,0,0,1,525.425,487.272Z" transform="translate(-328.172 -331.563)" opacity="0.04"/>
    </g>
  </g>
</svg>
