<svg xmlns="http://www.w3.org/2000/svg" width="26" height="26" viewBox="0 0 26 26">
  <g id="campain" transform="translate(15210 5210)">
    <rect id="Rectangle_3666" data-name="Rectangle 3666" width="26" height="26" transform="translate(-15210 -5210)" fill="rgba(207,207,207,0)"/>
    <g id="Group_15604" data-name="Group 15604" transform="translate(-15208.2 -5209.2)">
      <rect id="Rectangle_11281" data-name="Rectangle 11281" width="9.062" height="1.702" transform="translate(7.559 12.2)" fill="#252525"/>
      <path id="Path_8307" data-name="Path 8307" d="M7.512,9.972V4.747h8.974V9.972ZM8.987,8.5h6.025V6.222H8.987Z" fill="#252525"/>
      <path id="Path_8308" data-name="Path 8308" d="M4.688,23.8a2.621,2.621,0,0,1-2.613-2.611V19.348H.2V17.873H2.075V12.785H.2V11.31H2.075V6.222H.2V4.747H2.076V2.812A2.62,2.62,0,0,1,4.688.2H19.266a2.62,2.62,0,0,1,2.613,2.613V21.188A2.62,2.62,0,0,1,19.266,23.8H4.688ZM3.551,21.188a1.141,1.141,0,0,0,1.137,1.137H19.262A1.142,1.142,0,0,0,20.4,21.187l0-18.375a1.141,1.141,0,0,0-1.138-1.137H4.688A1.142,1.142,0,0,0,3.55,2.812V4.747h.622a.747.747,0,0,1,.754.713.739.739,0,0,1-.713.762H3.55v5.087h.622a.747.747,0,0,1,.754.713.739.739,0,0,1-.713.762H3.55v5.088h.623a.75.75,0,0,1,.785.737.739.739,0,0,1-.738.738H3.551Z" fill="#252525"/>
    </g>
  </g>
</svg>
