<svg xmlns="http://www.w3.org/2000/svg" width="26" height="26" viewBox="0 0 26 26">
  <g id="about" transform="translate(15707 -2251)">
    <rect id="Rectangle_3930" data-name="Rectangle 3930" width="26" height="26" transform="translate(-15707 2251)" fill="none"/>
    <path id="Path_2211" data-name="Path 2211" d="M150.167,91.943a17.2,17.2,0,0,0,13.468,4.51.259.259,0,0,0,.252-.259V92.663a.259.259,0,0,0-.306-.255,13.308,13.308,0,0,1-5.3-.389c4.342-3.861,6.255-10.572,5.6-16.225a17.471,17.471,0,0,0-4,0,17.248,17.248,0,0,0-11.008,5.816,13.315,13.315,0,0,1,.394-6.235.231.231,0,0,0-.216-.313h-3.7a.231.231,0,0,0-.228.192,17.323,17.323,0,0,0,.917,10.856,17.321,17.321,0,0,0-.9,10.932h0a.231.231,0,0,0,.225.18h3.7a.231.231,0,0,0,.231-.231.227.227,0,0,0-.012-.075,13.217,13.217,0,0,1,10.592-17.062c0,2.951-3.057,8.471-5.644,10.225-1.044-.742-2.516-2.993-2.61-2.805S150.286,88.367,150.167,91.943Z" transform="translate(-15847.974 2177.164)" fill="none" stroke="#252525" stroke-width="1.5" fill-rule="evenodd"/>
  </g>
</svg>
