<svg xmlns="http://www.w3.org/2000/svg" width="26" height="26" viewBox="0 0 26 26">
  <g id="campain" transform="translate(15210 5210)">
    <rect id="Rectangle_3666" data-name="Rectangle 3666" width="26" height="26" transform="translate(-15210 -5210)" fill="rgba(207,207,207,0)"/>
    <path id="Path_8336" data-name="Path 8336" d="M11.3,22.8A11.5,11.5,0,0,1,3.168,3.168,11.5,11.5,0,0,1,19.432,19.432,11.425,11.425,0,0,1,11.3,22.8ZM5,18.8a9.778,9.778,0,0,0,12.593,0l-2.824-2.824a5.818,5.818,0,0,1-6.945,0ZM3.8,5A9.778,9.778,0,0,0,3.8,17.6l2.824-2.824a5.818,5.818,0,0,1,0-6.945ZM18.8,17.6A9.778,9.778,0,0,0,18.8,5L15.976,7.827a5.817,5.817,0,0,1,0,6.944ZM11.3,7.176A4.124,4.124,0,1,0,15.424,11.3,4.129,4.129,0,0,0,11.3,7.176Zm0-1.7a5.76,5.76,0,0,1,3.473,1.15L17.6,3.8A9.778,9.778,0,0,0,5,3.8L7.828,6.624A5.755,5.755,0,0,1,11.3,5.474Z" transform="translate(-15207.8 -5207.8)" fill="#252525"/>
  </g>
</svg>
