<svg xmlns="http://www.w3.org/2000/svg" width="26" height="26" viewBox="0 0 26 26">
  <g id="campain" transform="translate(15210 5210)">
    <rect id="Rectangle_3666" data-name="Rectangle 3666" width="26" height="26" transform="translate(-15210 -5210)" fill="rgba(207,207,207,0)"/>
    <path id="Path_8344" data-name="Path 8344" d="M11.953,18.8a.938.938,0,1,1,.938-.938A.937.937,0,0,1,11.953,18.8Zm.938-4.219V13.319A3.908,3.908,0,1,0,9.2,6.728,3.839,3.839,0,0,0,8.016,9.516a.938.938,0,0,0,1.875,0A1.977,1.977,0,0,1,10.5,8.079,2.075,2.075,0,0,1,12.035,7.5a2.025,2.025,0,0,1,.37,4.006,1.753,1.753,0,0,0-1.389,1.72v1.351a.938.938,0,1,0,1.875,0Zm5.318,7.693a.938.938,0,0,0-.971-1.6,10.215,10.215,0,1,1,3.17-3.047.938.938,0,0,0,1.559,1.042A11.994,11.994,0,0,0,3.515,3.515,12,12,0,0,0,18.209,22.271Z" transform="translate(-15209 -5209)" fill="#252525"/>
  </g>
</svg>
