<svg xmlns="http://www.w3.org/2000/svg" width="26" height="26" viewBox="0 0 26 26">
  <g id="campain" transform="translate(15210 5210)">
    <rect id="Rectangle_3666" data-name="Rectangle 3666" width="26" height="26" transform="translate(-15210 -5210)" fill="rgba(207,207,207,0)"/>
    <g id="Group_15606" data-name="Group 15606" transform="translate(-15209.529 -5208.696)">
      <path id="Path_8313" data-name="Path 8313" d="M12.382,7.011a5.146,5.146,0,1,0,5.29,5.15v-.007a5.143,5.143,0,0,0-5.141-5.145Zm.047,1.716a3.428,3.428,0,0,1,3.527,3.327c0,.033,0,.066,0,.1a3.429,3.429,0,1,1-3.529-3.427Z" fill="#252525"/>
      <path id="Path_8314" data-name="Path 8314" d="M8.967.7A12.008,12.008,0,0,0,4.386,3.34,6.226,6.226,0,0,1,.824,9.51a12,12,0,0,0,0,5.287A6.227,6.227,0,0,1,4.386,20.97a12.019,12.019,0,0,0,4.581,2.643,6.227,6.227,0,0,1,7.125,0A12.007,12.007,0,0,0,20.67,20.97,6.228,6.228,0,0,1,24.234,14.8a12,12,0,0,0,0-5.287A6.228,6.228,0,0,1,20.67,3.34,12,12,0,0,0,16.092.7,6.227,6.227,0,0,1,8.967.7Zm-.2,1.885a7.937,7.937,0,0,0,7.526,0A10.305,10.305,0,0,1,18.938,4.11,7.942,7.942,0,0,0,22.7,10.627a10.291,10.291,0,0,1,0,3.055A7.943,7.943,0,0,0,18.938,20.2a10.27,10.27,0,0,1-2.646,1.527,7.942,7.942,0,0,0-7.526,0A10.264,10.264,0,0,1,6.121,20.2a7.944,7.944,0,0,0-3.764-6.517,10.291,10.291,0,0,1,0-3.055A7.943,7.943,0,0,0,6.121,4.11,10.283,10.283,0,0,1,8.766,2.581Z" fill="#252525"/>
    </g>
  </g>
</svg>
