<svg xmlns="http://www.w3.org/2000/svg" width="26" height="26" viewBox="0 0 26 26">
  <g id="campain" transform="translate(15210 5210)">
    <rect id="Rectangle_3666" data-name="Rectangle 3666" width="26" height="26" transform="translate(-15210 -5210)" fill="rgba(207,207,207,0)"/>
    <path id="Path_8335" data-name="Path 8335" d="M11.2,22.189A10.989,10.989,0,0,1,.2,11.236,10.841,10.841,0,0,1,4.391,2.7a1.089,1.089,0,0,1,1.518.177A1.06,1.06,0,0,1,5.73,4.368a8.723,8.723,0,0,0-3.372,6.87,8.844,8.844,0,0,0,17.685,0,8.731,8.731,0,0,0-3.375-6.874,1.06,1.06,0,0,1-.177-1.495A1.089,1.089,0,0,1,18.007,2.7a10.842,10.842,0,0,1,4.193,8.54A10.989,10.989,0,0,1,11.2,22.189Zm0-10.31a1.516,1.516,0,0,1-1.516-1.51V1.7a1.518,1.518,0,0,1,3.035,0v8.669A1.517,1.517,0,0,1,11.2,11.879Z" transform="translate(-15208.2 -5208.189)" fill="#252525"/>
  </g>
</svg>
