<svg xmlns="http://www.w3.org/2000/svg" width="90" height="90" viewBox="0 0 90 90">
  <g id="Group_15769" data-name="Group 15769" transform="translate(-143 -312)">
    <rect id="Rectangle_4209" data-name="Rectangle 4209" width="90" height="90" transform="translate(143 312)" fill="none"/>
    <g id="Group_15768" data-name="Group 15768" transform="translate(151 320.97)">
      <path id="Path_10619" data-name="Path 10619" d="M73.052,4.28A4.285,4.285,0,0,0,68.771,0H12.841A7.142,7.142,0,0,0,5.707,7.134V8.846H4.566a4.566,4.566,0,1,0,0,9.131H5.707v6.278H4.566a4.566,4.566,0,0,0,0,9.131H5.707v6.278H4.566a4.566,4.566,0,0,0,0,9.131H5.707v6.278H4.566a4.566,4.566,0,0,0,0,9.131H5.707v1.712a7.142,7.142,0,0,0,7.134,7.134h55.93a4.285,4.285,0,0,0,4.28-4.28V60.439a4.262,4.262,0,0,0-1.093-2.854,4.263,4.263,0,0,0,1.093-2.854V46.4a4.262,4.262,0,0,0-1.093-2.854,4.263,4.263,0,0,0,1.093-2.854V32.36a4.262,4.262,0,0,0-1.093-2.854,4.263,4.263,0,0,0,1.093-2.854V18.32a4.262,4.262,0,0,0-1.093-2.854,4.263,4.263,0,0,0,1.093-2.854Zm-2.854,0v8.332a1.428,1.428,0,0,1-1.427,1.427h-4.28V7.134a7.1,7.1,0,0,0-1.431-4.28h5.711A1.428,1.428,0,0,1,70.2,4.28Zm0,28.079v8.332a1.428,1.428,0,0,1-1.427,1.427h-4.28V30.933h4.28A1.428,1.428,0,0,1,70.2,32.36Zm0,14.04v8.332a1.428,1.428,0,0,1-1.427,1.427h-4.28V44.972h4.28A1.428,1.428,0,0,1,70.2,46.4ZM2.854,13.412A1.714,1.714,0,0,1,4.566,11.7h6.278a1.712,1.712,0,0,1,0,3.424H4.566A1.714,1.714,0,0,1,2.854,13.412Zm0,15.409a1.714,1.714,0,0,1,1.712-1.712h6.278a1.712,1.712,0,0,1,0,3.424H4.566A1.714,1.714,0,0,1,2.854,28.821Zm0,15.409a1.714,1.714,0,0,1,1.712-1.712h6.278a1.712,1.712,0,1,1,0,3.424H4.566A1.714,1.714,0,0,1,2.854,44.231Zm0,15.409a1.714,1.714,0,0,1,1.712-1.712h6.278a1.712,1.712,0,0,1,0,3.424H4.566A1.714,1.714,0,0,1,2.854,59.64ZM12.841,70.2a4.285,4.285,0,0,1-4.28-4.28V64.206h2.283a4.566,4.566,0,0,0,0-9.131H8.561V48.8h2.283a4.566,4.566,0,0,0,0-9.131H8.561V33.387h2.283a4.566,4.566,0,0,0,0-9.131H8.561V17.978h2.283a4.566,4.566,0,1,0,0-9.131H8.561V7.134a4.285,4.285,0,0,1,4.28-4.28H57.357a4.285,4.285,0,0,1,4.28,4.28V65.918a4.285,4.285,0,0,1-4.28,4.28ZM70.2,68.771A1.428,1.428,0,0,1,68.771,70.2H63.06a7.1,7.1,0,0,0,1.431-4.28V59.012h4.28A1.428,1.428,0,0,1,70.2,60.439Z" fill="#b3bec5"/>
      <rect id="Rectangle_11377" data-name="Rectangle 11377" width="2.637" height="36.063" transform="translate(42.109 21.62) rotate(30)" fill="#b3bec5"/>
      <g id="Group_15767" data-name="Group 15767" transform="translate(23.114 22.543)">
        <path id="Path_10620" data-name="Path 10620" d="M275.322,213.976a7.107,7.107,0,0,0,1.887-4.827v-1.14l-4.791,8.3a8.856,8.856,0,0,1,8.216,8.821v.856h-2.265a1.427,1.427,0,1,0,0,2.854h3.692a1.427,1.427,0,0,0,1.427-1.427v-2.283A11.72,11.72,0,0,0,275.322,213.976Z" transform="translate(-256.664 -200.873)" fill="#b3bec5"/>
        <path id="Path_10621" data-name="Path 10621" d="M168.948,183.112h-4.094v-.856a8.856,8.856,0,0,1,8.846-8.846h.85l1.695-2.935a4.28,4.28,0,0,1-5.113-4.2v-1.141a4.28,4.28,0,0,1,8.522-.565l1.832-3.172a7.132,7.132,0,0,0-13.207,3.737v1.141a7.106,7.106,0,0,0,1.887,4.827A11.72,11.72,0,0,0,162,182.255v2.283a1.427,1.427,0,0,0,1.427,1.427H167.3Z" transform="translate(-162 -158)" fill="#b3bec5"/>
        <path id="Path_10622" data-name="Path 10622" d="M230.9,334H223.36l-1.648,2.854H230.9a1.427,1.427,0,0,0,0-2.854Z" transform="translate(-213.192 -308.888)" fill="#b3bec5"/>
      </g>
    </g>
  </g>
</svg>
