<svg xmlns="http://www.w3.org/2000/svg" width="37" height="37" viewBox="0 0 37 37">
  <g id="Phone" transform="translate(-16 -573)">
    <rect id="Rectangle_11385" data-name="Rectangle 11385" width="37" height="37" rx="4" transform="translate(16 573)" fill="#5ed294"/>
    <g id="call" transform="translate(24 581)">
      <g id="Group_16290" data-name="Group 16290">
        <path id="Path_10693" data-name="Path 10693" d="M19.479,13.9a12.024,12.024,0,0,1-3.776-.6,1.726,1.726,0,0,0-1.679.354l-2.381,1.8A13.16,13.16,0,0,1,5.726,9.536L7.471,7.216a1.712,1.712,0,0,0,.421-1.734,12.043,12.043,0,0,1-.6-3.783A1.7,1.7,0,0,0,5.589,0H1.7A1.7,1.7,0,0,0,0,1.7,19.5,19.5,0,0,0,19.479,21.178a1.7,1.7,0,0,0,1.7-1.7V15.6A1.7,1.7,0,0,0,19.479,13.9Z" fill="#fff"/>
      </g>
    </g>
  </g>
</svg>
