<svg xmlns="http://www.w3.org/2000/svg" width="26" height="26" viewBox="0 0 26 26">
  <g id="campain" transform="translate(15210 5210)">
    <rect id="Rectangle_3666" data-name="Rectangle 3666" width="26" height="26" transform="translate(-15210 -5210)" fill="rgba(207,207,207,0)"/>
    <g id="Group_15605" data-name="Group 15605" transform="translate(-15210.8 -5210.8)">
      <path id="Path_8309" data-name="Path 8309" d="M4.43,25.671a1.613,1.613,0,0,1-1.63-1.63V13.971a.642.642,0,0,1,.671-.671h8.152a.671.671,0,0,1,0,1.343H4.143v9.4a.289.289,0,0,0,.288.288H22.652a.262.262,0,0,0,.288-.288v-9.4h-7.48a.671.671,0,0,1,0-1.343h8.152a.642.642,0,0,1,.671.671v10.07a1.613,1.613,0,0,1-1.63,1.63Z" transform="translate(-0.041 -0.471)" fill="#252525"/>
      <path id="Path_8310" data-name="Path 8310" d="M15.418,14.315a.671.671,0,0,1,0-1.343H23.09a.768.768,0,0,0,.767-.767V6.643H3.143V12.2a.768.768,0,0,0,.767.767h7.672a.671.671,0,1,1,0,1.343H3.91A2.112,2.112,0,0,1,1.8,12.2V5.971A.642.642,0,0,1,2.471,5.3H24.529a.642.642,0,0,1,.671.671V12.2a2.112,2.112,0,0,1-2.11,2.11Z" transform="translate(0 -0.143)" fill="#252525"/>
      <path id="Path_8311" data-name="Path 8311" d="M11.971,16.479a.642.642,0,0,1-.671-.671V11.971a.642.642,0,0,1,.671-.671h3.836a.642.642,0,0,1,.671.671v3.836a.673.673,0,0,1-.671.671Zm3.165-1.343V12.643H12.643v2.493Z" transform="translate(-0.389 -0.389)" fill="#252525"/>
      <path id="Path_8312" data-name="Path 8312" d="M19.021,6.5a.642.642,0,0,1-.671-.671V3.43a.262.262,0,0,0-.288-.288H9.43a.262.262,0,0,0-.288.288v2.4a.671.671,0,1,1-1.343,0V3.43A1.613,1.613,0,0,1,9.43,1.8h8.631a1.613,1.613,0,0,1,1.63,1.63v2.4A.673.673,0,0,1,19.021,6.5Z" transform="translate(-0.246)" fill="#252525"/>
    </g>
  </g>
</svg>
