<svg xmlns="http://www.w3.org/2000/svg" width="26" height="26" viewBox="0 0 26 26">
  <g id="about" transform="translate(15707 -2251)">
    <rect id="Rectangle_3930" data-name="Rectangle 3930" width="26" height="26" transform="translate(-15707 2251)" fill="none"/>
    <g id="Group_16435" data-name="Group 16435" transform="translate(-16490.988 1905.156)">
      <path id="Path_10730" data-name="Path 10730" d="M796.35,370.229c-.146-.036-.295-.066-.439-.11a3.216,3.216,0,0,1-2.366-2.593c-.011-.056-.027-.112-.044-.182h-1.661c-.874,0-1.747,0-2.621,0a2.52,2.52,0,0,1-.257-5.031c.5-.051.571-.029.568-.636-.007-1.354-.03-2.709,0-4.063a7.08,7.08,0,0,1,4.359-6.644c.136-.065.326-.09.4-.2s0-.279,0-.424a2.45,2.45,0,0,1,2.031-2.454l.131-.02a1.718,1.718,0,0,1,.6,0,2.912,2.912,0,0,1,1.059.414,2.411,2.411,0,0,1,1.061,2.517c.044.022.093.049.144.072a7.26,7.26,0,0,1,4.591,6.15,28.768,28.768,0,0,1,.055,3.011c.006.6,0,1.194,0,1.792,0,.385.049.439.428.471a2.6,2.6,0,0,1,2.411,2.024,2.526,2.526,0,0,1-2.439,3.023c-1.376.012-2.753,0-4.129,0h-.18a10.36,10.36,0,0,1-.52,1.274,3.117,3.117,0,0,1-2.274,1.57.776.776,0,0,0-.119.041Zm.385-4.328h4.347c1.07,0,2.141,0,3.211,0a1.079,1.079,0,0,0,1.1-1.21,1.142,1.142,0,0,0-1.154-.958,1.729,1.729,0,0,1-1.728-1.832q0-2.032,0-4.063a6.133,6.133,0,0,0-.4-2.242,5.743,5.743,0,0,0-11.134,1.853c-.019,1.507,0,3.015-.006,4.522a1.719,1.719,0,0,1-1.384,1.725c-.191.04-.391.034-.585.067a1.109,1.109,0,0,0-.91.911,1.05,1.05,0,0,0,.62,1.12,1.62,1.62,0,0,0,.594.1Q793.021,365.906,796.735,365.9ZM795,367.351a1.78,1.78,0,0,0,1.816,1.433,1.758,1.758,0,0,0,1.666-1.433Zm2.732-16.936a.936.936,0,0,0-.418-.946,1.023,1.023,0,0,0-1.148.008.931.931,0,0,0-.411.938Z" fill="#252525"/>
      <path id="Path_10731" data-name="Path 10731" d="M1069.2,399.238a.718.718,0,0,1-1.409.234c-.133-.43-.242-.869-.4-1.29a8.118,8.118,0,0,0-1.845-2.857.779.779,0,0,1-.271-.639.685.685,0,0,1,.46-.611.7.7,0,0,1,.782.175,9.894,9.894,0,0,1,2.655,4.806C1069.185,399.126,1069.19,399.2,1069.2,399.238Z" transform="translate(-262.39 -43.487)" fill="#252525"/>
      <path id="Path_10732" data-name="Path 10732" d="M787.93,400.076a.7.7,0,0,1-.681-.935,17.2,17.2,0,0,1,.642-1.9,9.143,9.143,0,0,1,1.991-2.9.725.725,0,0,1,.9-.147.692.692,0,0,1,.337.8.922.922,0,0,1-.218.368,8.472,8.472,0,0,0-2.242,4.078A.72.72,0,0,1,787.93,400.076Z" transform="translate(-0.539 -43.565)" fill="#252525"/>
    </g>
  </g>
</svg>
