<svg xmlns="http://www.w3.org/2000/svg" width="511.996" height="478.047" viewBox="0 0 511.996 478.047">
  <g id="shopping-basket" transform="translate(0 -0.5)">
    <path id="Path_8345" data-name="Path 8345" d="M90.008,468.52H421.992l60.363-209A19.676,19.676,0,0,0,501.973,239.9v-42.25a19.675,19.675,0,0,0-19.617-19.617H29.645a19.675,19.675,0,0,0-19.617,19.617V239.9A19.676,19.676,0,0,0,29.645,259.52Zm0,0" fill="#e6efff" fill-rule="evenodd"/>
    <path id="Path_8346" data-name="Path 8346" d="M29.645,259.52H482.355A19.676,19.676,0,0,0,501.973,239.9v-42.25a19.675,19.675,0,0,0-19.617-19.617H29.645a19.675,19.675,0,0,0-19.617,19.617V239.9A19.676,19.676,0,0,0,29.645,259.52Zm0,0" fill="#e6efff" fill-rule="evenodd"/>
    <path id="Path_8347" data-name="Path 8347" d="M369.934,178.031h75.953v-56.59H369.934V10.527H218.02V45.234H142.066V96.543H66.113v81.488Zm0,0" fill="#e6efff" fill-rule="evenodd"/>
    <path id="Path_8348" data-name="Path 8348" d="M142.066,178.031H218.02V45.234H142.066Zm0,0" fill="#aac9ff" fill-rule="evenodd"/>
    <path id="Path_8349" data-name="Path 8349" d="M218.02,178.031H369.934V10.527H218.02Zm0,0" fill="#e6efff" fill-rule="evenodd"/>
    <path id="Path_8350" data-name="Path 8350" d="M29.645,168H56.086V96.543A10.026,10.026,0,0,1,66.113,86.516h65.926V45.234a10.031,10.031,0,0,1,10.027-10.027H208V10.527A10.025,10.025,0,0,1,218.02.5H369.93a10.026,10.026,0,0,1,10.027,10.027V111.414h65.93a10.028,10.028,0,0,1,10.027,10.027V168h26.441A29.7,29.7,0,0,1,512,197.648V239.9a29.74,29.74,0,0,1-21.836,28.6L431.59,471.3a9.993,9.993,0,0,1-9.6,7.211L296,478.527v-.008a10,10,0,0,1,0-20v-.027H414.488l54.57-188.945H296v-.027a10,10,0,0,1,0-20v-.027H482.355a9.643,9.643,0,0,0,9.59-9.59V197.648a9.643,9.643,0,0,0-9.59-9.59H29.645a9.643,9.643,0,0,0-9.59,9.59V239.9a9.643,9.643,0,0,0,9.59,9.59H216v.027a10,10,0,0,1,0,20v.027H42.938l54.57,188.945H216v.027a10,10,0,0,1,0,20v.016l-125.992.012a10.028,10.028,0,0,1-9.84-8.082L21.84,268.5A29.725,29.725,0,0,1,0,239.9v-42.25A29.7,29.7,0,0,1,29.645,168ZM256,249.52a10,10,0,1,0,10,10A10,10,0,0,0,256,249.52Zm0,209a10,10,0,1,0,10,10A10,10,0,0,0,256,458.52ZM379.961,131.469V168h55.9V131.469ZM76.141,168h55.9V106.57h-55.9Zm75.953,0H208V55.262h-55.9Zm75.957,0H359.9V20.555H228.051Zm-96.012,131.5v129.02a10.027,10.027,0,0,0,20.055,0V299.508a10.027,10.027,0,0,0-20.055,0Zm227.863,0v129.02a10.027,10.027,0,0,0,20.055,0V299.508a10.027,10.027,0,0,0-20.055,0Zm-75.953,0v129.02a10.027,10.027,0,0,0,20.055,0V299.508a10.027,10.027,0,0,0-20.055,0Zm-75.953,0v129.02a10.027,10.027,0,0,0,20.055,0V299.508a10.027,10.027,0,0,0-20.055,0Zm0,0" fill="#1658d3" fill-rule="evenodd"/>
  </g>
</svg>
