<svg xmlns="http://www.w3.org/2000/svg" width="43.761" height="49.559" viewBox="0 0 43.761 49.559">
  <g id="increase" transform="translate(-29.947)">
    <path id="Path_10574" data-name="Path 10574" d="M126.967,11.805a12.692,12.692,0,0,1,25.322,0c.02.293,0,12.485-12.661,12.485S126.946,12.1,126.967,11.805Z" transform="translate(-87.627)" fill="#ffba57"/>
    <path id="Path_10575" data-name="Path 10575" d="M139.356,133.769a12.692,12.692,0,0,1-12.66-11.805c-.02.293-.031.588-.031.886a12.691,12.691,0,1,0,25.383,0c0-.3-.011-.593-.031-.886A12.692,12.692,0,0,1,139.356,133.769Z" transform="translate(-87.356 -110.159)" fill="#ffac3e"/>
    <g id="Group_15662" data-name="Group 15662" transform="translate(33.182 23.437)">
      <path id="Path_10576" data-name="Path 10576" d="M74.677,348.714l-5-5.32a.761.761,0,0,0-.26-.186.74.74,0,0,0-.826.175l-5,5.315a.758.758,0,0,0-.2.646.739.739,0,0,0,.728.614H65.56v7.026l.871,1.639h5.388l.871-1.639v-7.026h1.428a.758.758,0,0,0,.611-.293.739.739,0,0,0-.052-.951Z" transform="translate(-63.372 -333.373)" fill="#ff4755"/>
      <path id="Path_10577" data-name="Path 10577" d="M209.636,296.228l-5-5.316a.735.735,0,0,0-1.081.006l-4.994,5.31a.758.758,0,0,0-.2.646.739.739,0,0,0,.728.614h1.449v12.105l.871,1.639h5.388l.871-1.639V297.488h1.449a.739.739,0,0,0,.728-.613A.758.758,0,0,0,209.636,296.228Z" transform="translate(-185.28 -285.981)" fill="#ff4755"/>
      <path id="Path_10578" data-name="Path 10578" d="M344.608,247.681l-5-5.316a.738.738,0,0,0-1.075,0l-5,5.316a.758.758,0,0,0-.2.646.739.739,0,0,0,.728.613H335.5v16.8l.871,1.639h5.388l.871-1.639v-16.8h1.449a.739.739,0,0,0,.728-.613A.757.757,0,0,0,344.608,247.681Z" transform="translate(-307.187 -242.133)" fill="#ff4755"/>
    </g>
    <path id="Path_10579" data-name="Path 10579" d="M85.976,486.069v1.772a.738.738,0,0,0,.738.738h5.654a.738.738,0,0,0,.738-.738v-1.772Z" transform="translate(-50.606 -439.02)" fill="#fc2b3a"/>
    <path id="Path_10580" data-name="Path 10580" d="M220.949,486.069v1.772a.738.738,0,0,0,.738.738h5.654a.738.738,0,0,0,.738-.738v-1.772Z" transform="translate(-172.514 -439.02)" fill="#fc2b3a"/>
    <path id="Path_10581" data-name="Path 10581" d="M355.922,486.069v1.772a.738.738,0,0,0,.738.738h5.654a.738.738,0,0,0,.738-.738v-1.772Z" transform="translate(-294.423 -439.02)" fill="#fc2b3a"/>
    <path id="Path_10582" data-name="Path 10582" d="M165.489,46.491a8.975,8.975,0,0,1,17.859-.032c.031.3,0,9.021-8.928,9.021s-8.959-8.7-8.931-8.989Z" transform="translate(-122.42 -34.686)" fill="#ffe27a"/>
    <path id="Path_10583" data-name="Path 10583" d="M174.042,130.052a8.975,8.975,0,0,1-8.931-8.088q-.043.437-.044.886a8.974,8.974,0,0,0,17.948,0q0-.448-.044-.886A8.975,8.975,0,0,1,174.042,130.052Z" transform="translate(-122.042 -110.159)" fill="#f9cf58"/>
    <path id="Path_10584" data-name="Path 10584" d="M226.92,75.953a1.587,1.587,0,0,1-1.54-.934.74.74,0,0,0-1.435.364h0l0,.014a.741.741,0,0,0,.034.1,2.955,2.955,0,0,0,2.3,1.861v.984a.74.74,0,0,0,1.479,0v-.962a2.829,2.829,0,0,0,1.481-.713,2.93,2.93,0,0,0,.884-2.105c0-.749-.294-2.525-3.017-2.826a1.621,1.621,0,0,1-1.144-.51,1.033,1.033,0,0,1-.215-.624,1.214,1.214,0,0,1,1.271-1.271,1.315,1.315,0,0,1,1.2.628.741.741,0,1,0,1.346-.614h0a2.717,2.717,0,0,0-1.806-1.406v-.993a.74.74,0,0,0-1.479,0v.99a2.7,2.7,0,0,0-2.011,2.667,2.668,2.668,0,0,0,2.675,2.6c1.7.188,1.7,1.066,1.7,1.355a1.455,1.455,0,0,1-.418,1.028A1.694,1.694,0,0,1,226.92,75.953Z" transform="translate(-175.201 -59.799)" fill="#ff4755"/>
    <g id="Group_15663" data-name="Group 15663" transform="translate(29.947 5.095)">
      <path id="Path_10585" data-name="Path 10585" d="M35.765,126.712a.74.74,0,0,0-.74-.74H30.687a.74.74,0,1,0,0,1.479h4.338A.74.74,0,0,0,35.765,126.712Z" transform="translate(-29.947 -118.874)" fill="#ffe27a"/>
      <path id="Path_10586" data-name="Path 10586" d="M73.511,193.107l-1.543.6a.74.74,0,1,0,.54,1.377l1.543-.6a.74.74,0,0,0-.54-1.377Z" transform="translate(-67.476 -179.464)" fill="#ffe27a"/>
      <path id="Path_10587" data-name="Path 10587" d="M71.968,54.067l1.543.6a.74.74,0,0,0,.54-1.377l-1.543-.6a.74.74,0,1,0-.54,1.377Z" transform="translate(-67.476 -52.639)" fill="#ffe27a"/>
      <path id="Path_10588" data-name="Path 10588" d="M427.028,125.972H422.69a.74.74,0,1,0,0,1.479h4.338a.74.74,0,1,0,0-1.479Z" transform="translate(-384.006 -118.874)" fill="#ffe27a"/>
      <path id="Path_10589" data-name="Path 10589" d="M409.746,194.483l1.543.6a.74.74,0,0,0,.54-1.377l-1.543-.6a.74.74,0,0,0-.54,1.377Z" transform="translate(-372.559 -179.463)" fill="#ffe27a"/>
      <path id="Path_10590" data-name="Path 10590" d="M410.016,54.725a.739.739,0,0,0,.27-.051l1.543-.6a.74.74,0,0,0-.54-1.377l-1.543.6a.74.74,0,0,0,.27,1.429Z" transform="translate(-372.559 -52.64)" fill="#ffe27a"/>
    </g>
  </g>
</svg>
