<svg xmlns="http://www.w3.org/2000/svg" width="139.55" height="127.971" viewBox="0 0 139.55 127.971">
  <g id="Group_15641" data-name="Group 15641" transform="translate(-119.327 -155.64)">
    <g id="Group_15637" data-name="Group 15637" transform="translate(143.306 177.307)">
      <path id="Path_10561" data-name="Path 10561" d="M126.405,162.3a2.387,2.387,0,0,1-1.841-.789l-9.818-10.081a2.6,2.6,0,0,1,3.769-3.594l7.977,8.24,16.831-15.954a2.6,2.6,0,0,1,3.594,3.769L128.246,161.6A3.013,3.013,0,0,1,126.405,162.3Z" transform="translate(-85.871 -105.905)" fill="#40e8a4"/>
      <path id="Path_10562" data-name="Path 10562" d="M44.9,84.694a39.8,39.8,0,1,1,39.8-39.8A39.841,39.841,0,0,1,44.9,84.694Zm0-75.121A35.325,35.325,0,1,0,80.223,44.9,35.365,35.365,0,0,0,44.9,9.573Z" fill="#40e8a4"/>
    </g>
    <g id="Group_15639" data-name="Group 15639" transform="translate(137 155.64)" opacity="0.35">
      <path id="Path_10563" data-name="Path 10563" d="M423.207,66.979l1.815,5.1a.819.819,0,0,0,.426.479l4.533,2.042a.9.9,0,0,1,0,1.6l-4.533,2.042a.819.819,0,0,0-.426.479l-1.815,5.1a.736.736,0,0,1-1.419,0l-1.815-5.1a.819.819,0,0,0-.426-.479L415.015,76.2a.9.9,0,0,1,0-1.6l4.533-2.042a.819.819,0,0,0,.426-.479l1.815-5.1A.736.736,0,0,1,423.207,66.979Z" transform="translate(-319.686 -46.996)" fill="#40e8a4"/>
      <path id="Path_10571" data-name="Path 10571" d="M423.207,66.979l1.815,5.1a.819.819,0,0,0,.426.479l4.533,2.042a.9.9,0,0,1,0,1.6l-4.533,2.042a.819.819,0,0,0-.426.479l-1.815,5.1a.736.736,0,0,1-1.419,0l-1.815-5.1a.819.819,0,0,0-.426-.479L415.015,76.2a.9.9,0,0,1,0-1.6l4.533-2.042a.819.819,0,0,0,.426-.479l1.815-5.1A.736.736,0,0,1,423.207,66.979Z" transform="translate(-418.686 41.004)" fill="#40e8a4"/>
      <path id="Path_10564" data-name="Path 10564" d="M119.252.4,120.6,4.186a.608.608,0,0,0,.316.355l3.363,1.515a.671.671,0,0,1,0,1.185l-3.363,1.515a.607.607,0,0,0-.316.355L119.252,12.9a.546.546,0,0,1-1.053,0l-1.346-3.785a.608.608,0,0,0-.316-.355l-3.363-1.515a.671.671,0,0,1,0-1.185l3.363-1.515a.607.607,0,0,0,.316-.355L118.2.4a.546.546,0,0,1,1.053,0Z" transform="translate(-94.554 0)" fill="#40e8a4"/>
      <path id="Path_10569" data-name="Path 10569" d="M118.2.4l-1.346,3.785a.608.608,0,0,1-.316.355l-3.363,1.515a.671.671,0,0,0,0,1.185l3.363,1.515a.607.607,0,0,1,.316.355L118.2,12.9a.546.546,0,0,0,1.053,0L120.6,9.112a.608.608,0,0,1,.316-.355l3.363-1.515a.671.671,0,0,0,0-1.185l-3.363-1.515a.607.607,0,0,1-.316-.355L119.252.4A.546.546,0,0,0,118.2.4Z" transform="translate(-17.973 109)" fill="#40e8a4"/>
      <path id="Path_10565" data-name="Path 10565" d="M376.061,28.6a2.666,2.666,0,1,1-2.666-2.666A2.666,2.666,0,0,1,376.061,28.6Z" transform="translate(-294.402 -22.298)" fill="#40e8a4"/>
      <path id="Path_10570" data-name="Path 10570" d="M370.729,28.6a2.666,2.666,0,1,0,2.666-2.666A2.666,2.666,0,0,0,370.729,28.6Z" transform="translate(-333.465 96.702)" fill="#40e8a4"/>
      <path id="Path_10567" data-name="Path 10567" d="M376.061,28.6a2.666,2.666,0,1,1-2.666-2.666A2.666,2.666,0,0,1,376.061,28.6Z" transform="translate(-388.402 41.702)" fill="#40e8a4"/>
      <path id="Path_10566" data-name="Path 10566" d="M32.074,92.345a3.938,3.938,0,1,1-3.938-3.938A3.938,3.938,0,0,1,32.074,92.345Z" transform="translate(-36.197 -68.19)" fill="#40e8a4"/>
      <path id="Path_10568" data-name="Path 10568" d="M32.074,92.345a3.938,3.938,0,1,1-3.938-3.938A3.938,3.938,0,0,1,32.074,92.345Z" transform="translate(89.803 -18.19)" fill="#40e8a4"/>
    </g>
  </g>
</svg>
