<svg xmlns="http://www.w3.org/2000/svg" width="139.55" height="127.971" viewBox="0 0 139.55 127.971">
  <g id="Group_15640" data-name="Group 15640" transform="translate(-119.327 -155.64)">
    <g id="Group_15639" data-name="Group 15639" transform="translate(137 155.64)" opacity="0.35">
      <path id="Path_10563" data-name="Path 10563" d="M423.207,66.979l1.815,5.1a.819.819,0,0,0,.426.479l4.533,2.042a.9.9,0,0,1,0,1.6l-4.533,2.042a.819.819,0,0,0-.426.479l-1.815,5.1a.736.736,0,0,1-1.419,0l-1.815-5.1a.819.819,0,0,0-.426-.479L415.015,76.2a.9.9,0,0,1,0-1.6l4.533-2.042a.819.819,0,0,0,.426-.479l1.815-5.1A.736.736,0,0,1,423.207,66.979Z" transform="translate(-319.686 -46.996)" fill="#ff7575"/>
      <path id="Path_10571" data-name="Path 10571" d="M423.207,66.979l1.815,5.1a.819.819,0,0,0,.426.479l4.533,2.042a.9.9,0,0,1,0,1.6l-4.533,2.042a.819.819,0,0,0-.426.479l-1.815,5.1a.736.736,0,0,1-1.419,0l-1.815-5.1a.819.819,0,0,0-.426-.479L415.015,76.2a.9.9,0,0,1,0-1.6l4.533-2.042a.819.819,0,0,0,.426-.479l1.815-5.1A.736.736,0,0,1,423.207,66.979Z" transform="translate(-418.686 41.004)" fill="#ff7575"/>
      <path id="Path_10564" data-name="Path 10564" d="M119.252.4,120.6,4.186a.608.608,0,0,0,.316.355l3.363,1.515a.671.671,0,0,1,0,1.185l-3.363,1.515a.607.607,0,0,0-.316.355L119.252,12.9a.546.546,0,0,1-1.053,0l-1.346-3.785a.608.608,0,0,0-.316-.355l-3.363-1.515a.671.671,0,0,1,0-1.185l3.363-1.515a.607.607,0,0,0,.316-.355L118.2.4a.546.546,0,0,1,1.053,0Z" transform="translate(-94.554 0)" fill="#ff7575"/>
      <path id="Path_10569" data-name="Path 10569" d="M118.2.4l-1.346,3.785a.608.608,0,0,1-.316.355l-3.363,1.515a.671.671,0,0,0,0,1.185l3.363,1.515a.607.607,0,0,1,.316.355L118.2,12.9a.546.546,0,0,0,1.053,0L120.6,9.112a.608.608,0,0,1,.316-.355l3.363-1.515a.671.671,0,0,0,0-1.185l-3.363-1.515a.607.607,0,0,1-.316-.355L119.252.4A.546.546,0,0,0,118.2.4Z" transform="translate(-17.973 109)" fill="#ff7575"/>
      <path id="Path_10565" data-name="Path 10565" d="M376.061,28.6a2.666,2.666,0,1,1-2.666-2.666A2.666,2.666,0,0,1,376.061,28.6Z" transform="translate(-294.402 -22.298)" fill="#ff7575"/>
      <path id="Path_10570" data-name="Path 10570" d="M370.729,28.6a2.666,2.666,0,1,0,2.666-2.666A2.666,2.666,0,0,0,370.729,28.6Z" transform="translate(-333.465 96.702)" fill="#ff7575"/>
      <path id="Path_10567" data-name="Path 10567" d="M376.061,28.6a2.666,2.666,0,1,1-2.666-2.666A2.666,2.666,0,0,1,376.061,28.6Z" transform="translate(-388.402 41.702)" fill="#ff7575"/>
      <path id="Path_10566" data-name="Path 10566" d="M32.074,92.345a3.938,3.938,0,1,1-3.938-3.938A3.938,3.938,0,0,1,32.074,92.345Z" transform="translate(-36.197 -68.19)" fill="#ff7575"/>
      <path id="Path_10568" data-name="Path 10568" d="M32.074,92.345a3.938,3.938,0,1,1-3.938-3.938A3.938,3.938,0,0,1,32.074,92.345Z" transform="translate(89.803 -18.19)" fill="#ff7575"/>
    </g>
    <g id="x-mark" transform="translate(148.305 182.368)">
      <path id="Path_10715" data-name="Path 10715" d="M39.879,79.759A39.879,39.879,0,1,1,79.759,39.879,39.924,39.924,0,0,1,39.879,79.759Zm0-74.062A34.183,34.183,0,1,0,74.062,39.879,34.222,34.222,0,0,0,39.879,5.7Zm0,0" fill="#ff7575"/>
      <path id="Path_10716" data-name="Path 10716" d="M177.621,180.47a2.838,2.838,0,0,1-2.014-.835L147.122,151.15a2.848,2.848,0,0,1,4.028-4.028l28.485,28.485a2.849,2.849,0,0,1-2.014,4.863Zm0,0" transform="translate(-123.498 -123.5)" fill="#ff7575"/>
      <path id="Path_10717" data-name="Path 10717" d="M149.134,180.469a2.849,2.849,0,0,1-2.014-4.863l28.485-28.485a2.848,2.848,0,0,1,4.028,4.028l-28.485,28.485A2.838,2.838,0,0,1,149.134,180.469Zm0,0" transform="translate(-123.498 -123.498)" fill="#ff7575"/>
    </g>
  </g>
</svg>
