<svg xmlns="http://www.w3.org/2000/svg" width="90" height="90" viewBox="0 0 90 90">
  <g id="Group_15848" data-name="Group 15848" transform="translate(-143 -283)">
    <rect id="Rectangle_4209" data-name="Rectangle 4209" width="90" height="90" transform="translate(143 283)" fill="none"/>
    <path id="Union_79" data-name="Union 79" d="M5363.022,11470.313,5353,11460.293l10.024-10.023,3.472,3.472-4.37,4.37a27.722,27.722,0,0,0,10-2.465,14.427,14.427,0,0,0,3.357,3.835,32.332,32.332,0,0,1-12.836,3.515l3.852,3.852-3.463,3.466-.008.006Zm13.2-13.832a11.747,11.747,0,1,1,8.308,3.44A11.68,11.68,0,0,1,5376.218,11456.481Zm-.308-8.308a8.615,8.615,0,1,0,8.616-8.613A8.625,8.625,0,0,0,5375.91,11448.174Zm-34.443,9.224a33.253,33.253,0,0,1-6.054-5.288l-.855-.953,3.653-3.273.855.95a28.132,28.132,0,0,0,5.153,4.5l1.06.717-2.749,4.071Zm38.727-8.133v-2.2h9v2.2Zm-48.232-1.75a32.893,32.893,0,0,1,25.825-50.187l-3.854-3.854,3.472-3.469,10.029,10.026-10.029,10.026-3.472-3.469,4.37-4.37a28,28,0,0,0-26.052,23.582,27.989,27.989,0,0,0,3.88,19.12l.676,1.085-4.168,2.6Zm25.364-3.426v-2.824a11.473,11.473,0,0,1-6.258-2.99l-.812-.752,2.835-4.107,1.068.82a11.774,11.774,0,0,0,6.146,2.13c1.854,0,3.368-.952,3.368-2.121s-1.054-1.673-3.759-1.831c-5.694-.432-8.829-2.815-8.829-6.71,0-3.287,2.271-5.634,6.238-6.469v-2.919h5.121v2.767a10.552,10.552,0,0,1,5.072,2l1.1.814-3.262,3.84-.958-.7a6.805,6.805,0,0,0-4.217-1.212c-1.275,0-3.414.222-3.414,1.7,0,.417,0,1.689,3.518,1.914,4.241.271,9.111,1.307,9.111,6.921,0,3.581-2.721,6.275-6.946,6.926v2.795Zm35.508-7.767a14.4,14.4,0,0,0-4.6-2.145,27.982,27.982,0,0,0-3.929-18.777l-.677-1.083,4.166-2.593.673,1.085a32.784,32.784,0,0,1,4.566,22.474c-.055.346-.115.69-.179,1.033l0,.015Zm-11.475-24.831a28.032,28.032,0,0,0-5.153-4.5l-1.056-.714,2.749-4.067,1.059.714a32.979,32.979,0,0,1,6.057,5.288l.855.953-3.656,3.275Z" transform="translate(-5175 -11102.001)" fill="#b3bec5" stroke="rgba(0,0,0,0)" stroke-miterlimit="10" stroke-width="1"/>
  </g>
</svg>
