<svg xmlns="http://www.w3.org/2000/svg" width="26" height="26.132" viewBox="0 0 26 26.132">
  <g id="campain" transform="translate(15210 5210)">
    <rect id="Rectangle_3666" data-name="Rectangle 3666" width="26" height="26" transform="translate(-15210 -5210)" fill="rgba(207,207,207,0)"/>
    <g id="Group_15615" data-name="Group 15615" transform="translate(-15259.91 -5219.803)">
      <path id="Path_8329" data-name="Path 8329" d="M53.462,28.8a10.291,10.291,0,0,1,8.08-15.7l-1.206-1.206L61.422,10.8,64.56,13.94l-3.138,3.138-1.086-1.086L61.7,14.625a8.753,8.753,0,0,0-6.937,13.361l.211.34-1.3.812Z" fill="#252525"/>
      <path id="Path_8330" data-name="Path 8330" d="M56.436,31.891a10.375,10.375,0,0,1-1.9-1.655l-.267-.3,1.143-1.024.267.3A8.812,8.812,0,0,0,57.3,30.618l.331.224-.86,1.274Z" fill="#252525"/>
      <path id="Path_8331" data-name="Path 8331" d="M60.044,32.8l3.137-3.137,1.087,1.086L62.9,32.114a8.754,8.754,0,0,0,6.937-13.363l-.211-.339,1.3-.812.211.339a10.292,10.292,0,0,1-8.079,15.7l1.2,1.206-1.086,1.086Z" fill="#252525"/>
      <path id="Path_8332" data-name="Path 8332" d="M68.918,17.527a8.768,8.768,0,0,0-1.612-1.407l-.331-.224.86-1.272.332.223A10.313,10.313,0,0,1,70.062,16.5l.267.3-1.143,1.025Z" fill="#252525"/>
      <path id="Path_8334" data-name="Path 8334" d="M61.4,27.728v-.883a3.6,3.6,0,0,1-1.958-.936l-.254-.235.887-1.286.334.257a3.687,3.687,0,0,0,1.923.667c.58,0,1.054-.3,1.054-.664s-.33-.524-1.176-.573c-1.782-.135-2.763-.881-2.763-2.1,0-1.028.711-1.762,1.952-2.024v-.913H63V19.9a3.3,3.3,0,0,1,1.587.627l.344.255-1.021,1.2-.3-.219a2.132,2.132,0,0,0-1.319-.379c-.4,0-1.069.069-1.069.533,0,.131,0,.529,1.1.6,1.327.085,2.851.409,2.851,2.166A2.274,2.274,0,0,1,63,26.854v.874Z" fill="#252525"/>
    </g>
  </g>
</svg>
